<svg width="8" height="6" viewBox="0 0 8 6" fill="none" xmlns="http://www.w3.org/2000/svg">
<path fill-rule="evenodd" clip-rule="evenodd" d="M0.823081 1.32305C0.846304 1.29977 0.873891 1.2813 0.904264 1.26869C0.934636 1.25609 0.967197 1.2496 1.00008 1.2496C1.03296 1.2496 1.06552 1.25609 1.0959 1.26869C1.12627 1.2813 1.15386 1.29977 1.17708 1.32305L4.00008 4.14655L6.82308 1.32305C6.84632 1.29981 6.87392 1.28137 6.90429 1.26879C6.93466 1.25621 6.96721 1.24973 7.00008 1.24973C7.03295 1.24973 7.0655 1.25621 7.09587 1.26879C7.12624 1.28137 7.15384 1.29981 7.17708 1.32305C7.20032 1.34629 7.21876 1.37389 7.23134 1.40426C7.24392 1.43463 7.2504 1.46718 7.2504 1.50005C7.2504 1.53292 7.24392 1.56547 7.23134 1.59584C7.21876 1.62621 7.20032 1.65381 7.17708 1.67705L4.17708 4.67705C4.15386 4.70033 4.12627 4.7188 4.0959 4.73141C4.06552 4.74401 4.03296 4.7505 4.00008 4.7505C3.9672 4.7505 3.93464 4.74401 3.90426 4.73141C3.87389 4.7188 3.8463 4.70033 3.82308 4.67705L0.823081 1.67705C0.799799 1.65383 0.781328 1.62624 0.768724 1.59587C0.756121 1.56549 0.749634 1.53293 0.749634 1.50005C0.749634 1.46717 0.756121 1.43461 0.768724 1.40423C0.781328 1.37386 0.799799 1.34627 0.823081 1.32305Z" fill="#1F3247" stroke="#1F3247"/>
</svg>
