<svg width="201" height="31" viewBox="0 0 201 31" fill="none" xmlns="http://www.w3.org/2000/svg">
<path d="M45.04 8.685C45.04 10.752 46.535 12.156 48.771 12.156C50.994 12.156 52.489 10.752 52.489 8.685V2.77H50.812V8.672C50.812 9.92 49.993 10.622 48.758 10.622C47.523 10.622 46.717 9.92 46.717 8.685V2.77H45.04V8.685ZM55.1202 12.897L54.6262 14.158C55.2632 14.496 56.1472 14.73 56.9792 14.73C58.7082 14.73 60.4762 13.872 60.4762 11.597V5.37H58.9292V5.877C58.9292 5.981 58.9422 6.059 58.9422 6.059H58.9032C58.9032 6.059 58.3832 5.214 56.9402 5.214C55.0292 5.214 54.0022 6.696 54.0022 8.516C54.0022 10.336 55.0812 11.87 56.9792 11.87C57.8632 11.87 58.4352 11.558 58.8252 10.973H58.8512C58.8512 10.973 58.8252 11.168 58.8252 11.324V11.714C58.8252 12.897 57.9672 13.326 56.9532 13.326C55.9522 13.326 55.1202 12.897 55.1202 12.897ZM57.3302 10.479C56.2642 10.479 55.6662 9.621 55.6662 8.464C55.6662 7.346 56.2252 6.618 57.2262 6.618C58.1232 6.618 58.8642 7.021 58.8642 8.529C58.8642 10.024 58.1232 10.479 57.3302 10.479ZM61.7959 8.685C61.7959 10.726 63.4209 12.156 65.4489 12.156C67.4639 12.156 69.0889 10.726 69.0889 8.685C69.0889 6.657 67.4639 5.214 65.4359 5.214C63.4209 5.214 61.7959 6.657 61.7959 8.685ZM63.4729 8.685C63.4729 7.463 64.3699 6.618 65.4489 6.618C66.5149 6.618 67.4119 7.463 67.4119 8.685C67.4119 9.92 66.5149 10.752 65.4489 10.752C64.3699 10.752 63.4729 9.92 63.4729 8.685ZM71.7149 12H73.5609L74.6789 8.217C74.7829 7.866 74.8349 7.502 74.8349 7.502H74.8609C74.8609 7.502 74.9259 7.866 75.0299 8.217L76.1479 12H77.9809L79.9959 5.37H78.2799L77.1229 9.725C77.0319 10.076 76.9799 10.427 76.9799 10.427H76.9539C76.9539 10.427 76.9019 10.076 76.8109 9.725L75.5889 5.383H74.1199L72.8979 9.725C72.8069 10.076 72.7419 10.427 72.7419 10.427H72.7159C72.7159 10.427 72.6769 10.076 72.5859 9.725L71.4289 5.37H69.6869L71.7149 12ZM80.6236 8.685C80.6236 10.57 81.9886 12.156 84.1856 12.156C85.8366 12.156 86.8506 11.207 86.8506 11.207L86.2136 10.024C86.2136 10.024 85.3686 10.752 84.3026 10.752C83.3146 10.752 82.4176 10.154 82.3136 8.997H86.8896C86.8896 8.997 86.9286 8.555 86.9286 8.36C86.9286 6.605 85.9016 5.214 83.9906 5.214C82.0146 5.214 80.6236 6.644 80.6236 8.685ZM82.3656 7.866C82.5216 7.008 83.1066 6.488 83.9516 6.488C84.6796 6.488 85.2386 6.969 85.2646 7.866H82.3656ZM87.7309 11.181C87.7309 11.181 88.6539 12.156 90.3049 12.156C91.8779 12.156 92.8399 11.272 92.8399 10.167C92.8399 8.035 89.6159 8.152 89.6159 7.216C89.6159 6.8 90.0319 6.618 90.4609 6.618C91.4749 6.618 92.0859 7.19 92.0859 7.19L92.6969 5.968C92.6969 5.968 91.9689 5.214 90.4739 5.214C89.0439 5.214 87.9389 5.929 87.9389 7.164C87.9389 9.296 91.1629 9.166 91.1629 10.154C91.1629 10.544 90.7599 10.752 90.2919 10.752C89.2129 10.752 88.4849 10.024 88.4849 10.024L87.7309 11.181ZM94.4538 9.569C94.4538 11.792 96.2868 12.065 97.2098 12.065C97.5218 12.065 97.7168 12.026 97.7168 12.026V10.583C97.7168 10.583 97.5998 10.609 97.4178 10.609C96.9628 10.609 96.1048 10.453 96.1048 9.361V6.787H97.6128V5.474H96.1048V3.563H94.4928V5.474H93.5958V6.787H94.4538V9.569ZM101.787 10.895C101.787 10.895 102.918 12.156 104.972 12.156C106.896 12.156 108.014 10.921 108.014 9.452C108.014 6.501 103.672 6.904 103.672 5.266C103.672 4.616 104.283 4.161 105.063 4.161C106.22 4.161 107.104 4.967 107.104 4.967L107.832 3.602C107.832 3.602 106.896 2.614 105.076 2.614C103.308 2.614 101.982 3.758 101.982 5.292C101.982 8.126 106.337 7.84 106.337 9.491C106.337 10.245 105.7 10.609 104.998 10.609C103.698 10.609 102.697 9.634 102.697 9.634L101.787 10.895ZM108.96 8.685C108.96 10.57 110.325 12.156 112.522 12.156C114.173 12.156 115.187 11.207 115.187 11.207L114.55 10.024C114.55 10.024 113.705 10.752 112.639 10.752C111.651 10.752 110.754 10.154 110.65 8.997H115.226C115.226 8.997 115.265 8.555 115.265 8.36C115.265 6.605 114.238 5.214 112.327 5.214C110.351 5.214 108.96 6.644 108.96 8.685ZM110.702 7.866C110.858 7.008 111.443 6.488 112.288 6.488C113.016 6.488 113.575 6.969 113.601 7.866H110.702ZM116.626 12H118.277V9.374C118.277 8.984 118.316 8.62 118.42 8.295C118.732 7.307 119.525 6.904 120.227 6.904C120.448 6.904 120.617 6.93 120.617 6.93V5.305C120.617 5.305 120.474 5.279 120.318 5.279C119.304 5.279 118.511 6.033 118.212 6.982H118.186C118.186 6.982 118.212 6.761 118.212 6.514V5.37H116.626V12ZM123.389 12H125.339L127.718 5.37H125.976L124.598 9.478C124.468 9.868 124.377 10.479 124.364 10.479H124.338C124.325 10.479 124.234 9.868 124.104 9.478L122.726 5.37H120.984L123.389 12ZM128.636 4.239H130.274V2.77H128.636V4.239ZM128.636 12H130.287V5.37H128.636V12ZM131.62 8.685C131.62 10.609 133.024 12.156 135.221 12.156C137.002 12.156 137.951 11.077 137.951 11.077L137.314 9.907C137.314 9.907 136.482 10.752 135.364 10.752C134.103 10.752 133.297 9.79 133.297 8.672C133.297 7.541 134.09 6.618 135.312 6.618C136.352 6.618 137.041 7.333 137.041 7.333L137.769 6.202C137.769 6.202 136.95 5.214 135.221 5.214C133.024 5.214 131.62 6.8 131.62 8.685ZM138.717 8.685C138.717 10.57 140.082 12.156 142.279 12.156C143.93 12.156 144.944 11.207 144.944 11.207L144.307 10.024C144.307 10.024 143.462 10.752 142.396 10.752C141.408 10.752 140.511 10.154 140.407 8.997H144.983C144.983 8.997 145.022 8.555 145.022 8.36C145.022 6.605 143.995 5.214 142.084 5.214C140.108 5.214 138.717 6.644 138.717 8.685ZM140.459 7.866C140.615 7.008 141.2 6.488 142.045 6.488C142.773 6.488 143.332 6.969 143.358 7.866H140.459ZM145.825 11.181C145.825 11.181 146.748 12.156 148.399 12.156C149.972 12.156 150.934 11.272 150.934 10.167C150.934 8.035 147.71 8.152 147.71 7.216C147.71 6.8 148.126 6.618 148.555 6.618C149.569 6.618 150.18 7.19 150.18 7.19L150.791 5.968C150.791 5.968 150.063 5.214 148.568 5.214C147.138 5.214 146.033 5.929 146.033 7.164C146.033 9.296 149.257 9.166 149.257 10.154C149.257 10.544 148.854 10.752 148.386 10.752C147.307 10.752 146.579 10.024 146.579 10.024L145.825 11.181ZM155.683 12H161.351V10.557H157.36V2.77H155.683V12ZM162.431 4.239H164.069V2.77H162.431V4.239ZM162.431 12H164.082V5.37H162.431V12ZM165.896 12H167.547V9.088C167.547 8.789 167.56 8.49 167.625 8.243C167.833 7.398 168.392 6.722 169.25 6.722C170.03 6.722 170.147 7.333 170.147 8.048V12H171.798V9.088C171.798 8.776 171.811 8.49 171.876 8.23C172.071 7.398 172.63 6.722 173.475 6.722C174.242 6.722 174.385 7.294 174.385 8.048V12H176.036V7.736C176.036 5.994 175.243 5.214 173.865 5.214C172.825 5.214 171.967 5.864 171.603 6.579H171.577C171.304 5.682 170.654 5.214 169.64 5.214C168.6 5.214 167.807 5.942 167.482 6.592H167.456C167.456 6.592 167.482 6.384 167.482 6.137V5.37H165.896V12ZM177.766 4.239H179.404V2.77H177.766V4.239ZM177.766 12H179.417V5.37H177.766V12ZM181.518 9.569C181.518 11.792 183.351 12.065 184.274 12.065C184.586 12.065 184.781 12.026 184.781 12.026V10.583C184.781 10.583 184.664 10.609 184.482 10.609C184.027 10.609 183.169 10.453 183.169 9.361V6.787H184.677V5.474H183.169V3.563H181.557V5.474H180.66V6.787H181.518V9.569ZM185.665 8.685C185.665 10.57 187.03 12.156 189.227 12.156C190.878 12.156 191.892 11.207 191.892 11.207L191.255 10.024C191.255 10.024 190.41 10.752 189.344 10.752C188.356 10.752 187.459 10.154 187.355 8.997H191.931C191.931 8.997 191.97 8.555 191.97 8.36C191.97 6.605 190.943 5.214 189.032 5.214C187.056 5.214 185.665 6.644 185.665 8.685ZM187.407 7.866C187.563 7.008 188.148 6.488 188.993 6.488C189.721 6.488 190.28 6.969 190.306 7.866H187.407ZM192.876 8.685C192.876 10.739 194.02 12.156 195.814 12.156C197.335 12.156 197.894 11.025 197.894 11.025H197.92C197.92 11.025 197.894 11.207 197.894 11.454V12H199.454V2.77H197.803V5.682C197.803 5.89 197.816 6.059 197.816 6.059H197.79C197.79 6.059 197.335 5.214 195.879 5.214C194.124 5.214 192.876 6.579 192.876 8.685ZM194.54 8.685C194.54 7.372 195.294 6.631 196.204 6.631C197.309 6.631 197.855 7.645 197.855 8.672C197.855 10.141 197.049 10.765 196.191 10.765C195.216 10.765 194.54 9.946 194.54 8.685Z" fill="#1F3247"/>
<path d="M44.605 24.084C44.605 26.339 46.233 28.132 48.521 28.132C50.424 28.132 51.48 26.933 51.48 26.933L51.04 26.394C51.04 26.394 50.094 27.428 48.532 27.428C46.695 27.428 45.397 25.921 45.397 24.073C45.397 22.247 46.695 20.839 48.51 20.839C49.962 20.839 50.864 21.697 50.864 21.697L51.271 21.136C51.271 21.136 50.336 20.135 48.488 20.135C46.277 20.135 44.605 21.84 44.605 24.084ZM52.4979 25.206C52.4979 26.878 53.8069 28.132 55.4239 28.132C57.0409 28.132 58.3499 26.878 58.3499 25.206C58.3499 23.567 57.0409 22.335 55.4239 22.335C53.8069 22.335 52.4979 23.567 52.4979 25.206ZM53.2679 25.206C53.2679 23.952 54.2359 23.017 55.4239 23.017C56.6119 23.017 57.5799 23.952 57.5799 25.206C57.5799 26.493 56.6119 27.461 55.4239 27.461C54.2359 27.461 53.2679 26.493 53.2679 25.206ZM59.7477 28H60.4957V25.382C60.4957 25.129 60.5177 24.876 60.5727 24.645C60.8037 23.798 61.4857 23.017 62.3877 23.017C63.4327 23.017 63.5537 23.831 63.5537 24.667V28H64.3017V25.382C64.3017 25.085 64.3237 24.821 64.4007 24.579C64.6097 23.765 65.3027 23.017 66.1497 23.017C67.1617 23.017 67.3487 23.765 67.3487 24.667V28H68.0967V24.48C68.0967 23.116 67.6017 22.335 66.2597 22.335C65.3247 22.335 64.5217 22.973 64.2247 23.721H64.2027C64.0377 22.808 63.5097 22.335 62.4867 22.335C61.6287 22.335 60.7487 22.984 60.4847 23.732H60.4627C60.4627 23.732 60.4847 23.534 60.4847 23.292V22.467H59.7477V28ZM69.8239 30.2H70.5719V27.56C70.5719 27.274 70.5499 27.076 70.5499 27.076H70.5719C70.5719 27.076 71.0559 28.132 72.3869 28.132C73.8169 28.132 74.8619 26.988 74.8619 25.239C74.8619 23.523 73.9379 22.335 72.4529 22.335C70.9899 22.335 70.5389 23.435 70.5389 23.435H70.5169C70.5169 23.435 70.5389 23.248 70.5389 23.006V22.467H69.8239V30.2ZM70.5499 25.25C70.5499 23.677 71.4189 23.017 72.3429 23.017C73.3769 23.017 74.0919 23.886 74.0919 25.239C74.0919 26.647 73.2889 27.472 72.3099 27.472C71.1659 27.472 70.5499 26.361 70.5499 25.25ZM75.8504 26.493C75.8504 27.593 76.8074 28.132 77.7314 28.132C79.1174 28.132 79.5794 26.933 79.5794 26.933H79.6014C79.6014 26.933 79.5794 27.12 79.5794 27.395V28H80.2944V24.458C80.2944 23.072 79.5574 22.335 78.2264 22.335C76.9834 22.335 76.2574 22.962 76.2574 22.962L76.6094 23.534C76.6094 23.534 77.2584 23.006 78.1714 23.006C78.9634 23.006 79.5464 23.369 79.5464 24.436V24.579H79.2384C78.2814 24.579 75.8504 24.623 75.8504 26.493ZM76.6204 26.449C76.6204 25.228 78.3584 25.195 79.2274 25.195H79.5464V25.437C79.5464 26.394 78.9084 27.494 77.8524 27.494C77.0274 27.494 76.6204 26.966 76.6204 26.449ZM82.0163 28H82.7643V25.349C82.7643 25.085 82.7863 24.832 82.8523 24.601C83.1053 23.688 83.9193 23.039 84.8653 23.039C85.9323 23.039 86.0643 23.809 86.0643 24.678V28H86.8123V24.48C86.8123 23.116 86.3283 22.335 84.9643 22.335C83.6553 22.335 82.9513 23.226 82.7533 23.732H82.7313C82.7313 23.732 82.7533 23.534 82.7533 23.292V22.467H82.0163V28ZM87.7118 29.98C87.7118 29.98 88.1078 30.31 88.6798 30.31C89.4168 30.31 89.9888 29.859 90.2748 29.155L93.0028 22.467H92.1888L90.5938 26.504C90.4838 26.779 90.4068 27.087 90.4068 27.087H90.3848C90.3848 27.087 90.2968 26.779 90.1868 26.504L88.5588 22.467H87.7338L90.0438 27.956L89.7028 28.737C89.4828 29.243 89.1418 29.639 88.6578 29.639C88.3058 29.639 87.9978 29.386 87.9978 29.386L87.7118 29.98ZM98.9381 28H99.6971V20.949H102.469V20.267H96.1551V20.949H98.9381V28ZM101.997 26.493C101.997 27.593 102.954 28.132 103.878 28.132C105.264 28.132 105.726 26.933 105.726 26.933H105.748C105.748 26.933 105.726 27.12 105.726 27.395V28H106.441V24.458C106.441 23.072 105.704 22.335 104.373 22.335C103.13 22.335 102.404 22.962 102.404 22.962L102.756 23.534C102.756 23.534 103.405 23.006 104.318 23.006C105.11 23.006 105.693 23.369 105.693 24.436V24.579H105.385C104.428 24.579 101.997 24.623 101.997 26.493ZM102.767 26.449C102.767 25.228 104.505 25.195 105.374 25.195H105.693V25.437C105.693 26.394 105.055 27.494 103.999 27.494C103.174 27.494 102.767 26.966 102.767 26.449ZM108.581 29.254L108.295 29.87C108.834 30.145 109.472 30.31 110.11 30.31C111.463 30.31 112.761 29.628 112.761 27.868V22.467H112.035V23.072C112.035 23.193 112.046 23.259 112.046 23.259H112.024C112.024 23.259 111.661 22.335 110.198 22.335C108.713 22.335 107.8 23.468 107.8 25.129C107.8 26.79 108.779 27.967 110.264 27.967C111.122 27.967 111.683 27.615 112.013 26.999H112.035C112.035 26.999 112.013 27.186 112.013 27.395V27.901C112.013 29.133 111.155 29.639 110.077 29.639C109.263 29.639 108.581 29.254 108.581 29.254ZM110.385 27.296C109.285 27.296 108.57 26.438 108.57 25.118C108.57 23.798 109.197 23.017 110.275 23.017C111.254 23.017 112.024 23.512 112.024 25.129C112.024 26.757 111.254 27.296 110.385 27.296ZM114.51 26.691C114.51 27.901 115.324 28.044 115.786 28.044C115.929 28.044 116.061 28.022 116.061 28.022V27.351C116.061 27.351 115.973 27.362 115.874 27.362C115.588 27.362 115.258 27.252 115.258 26.526V20.267H114.51V26.691ZM117.261 21.202H118.042V20.267H117.261V21.202ZM117.283 28H118.031V22.467H117.283V28ZM119.84 28H120.588V25.349C120.588 25.085 120.61 24.832 120.676 24.601C120.929 23.688 121.743 23.039 122.689 23.039C123.756 23.039 123.888 23.809 123.888 24.678V28H124.636V24.48C124.636 23.116 124.152 22.335 122.788 22.335C121.479 22.335 120.775 23.226 120.577 23.732H120.554C120.554 23.732 120.577 23.534 120.577 23.292V22.467H119.84V28ZM125.975 25.239C125.975 26.944 127.218 28.132 128.868 28.132C130.111 28.132 130.914 27.362 130.914 27.362L130.573 26.79C130.573 26.79 129.902 27.461 128.89 27.461C127.746 27.461 126.778 26.691 126.745 25.272H130.991C130.991 25.272 131.013 25.019 131.013 24.887C131.013 23.512 130.232 22.335 128.703 22.335C127.207 22.335 125.975 23.424 125.975 25.239ZM126.778 24.656C126.954 23.545 127.757 22.962 128.681 22.962C129.506 22.962 130.21 23.501 130.254 24.656H126.778Z" fill="#1F3247"/>
<rect y="16" width="21.2132" height="21.2132" transform="rotate(-45 0 16)" fill="#6929BB"/>
<path d="M20.4036 9.74347V18.6306C20.4036 19.6377 20.1893 20.5112 19.7606 21.251C19.332 21.9846 18.717 22.5441 17.9157 22.9296C17.1144 23.315 16.1671 23.5078 15.0738 23.5078C13.4214 23.5078 12.12 23.0788 11.1696 22.2209C10.2192 21.3629 9.73464 20.1879 9.716 18.6959V9.74347H13.0052V18.7611C13.0425 20.247 13.732 20.9899 15.0738 20.9899C15.7509 20.9899 16.2633 20.8034 16.6112 20.4304C16.9591 20.0574 17.133 19.4512 17.133 18.6119V9.74347H20.4036Z" fill="#6BFA8B"/>
</svg>
