<svg width="12" height="12" viewBox="0 0 12 12" fill="none" xmlns="http://www.w3.org/2000/svg">
<path d="M10.5 4.99999C10.5 8.49999 6 11.5 6 11.5C6 11.5 1.5 8.49999 1.5 4.99999C1.5 3.80651 1.97411 2.66192 2.81802 1.81801C3.66193 0.974094 4.80653 0.499989 6 0.499989C7.19347 0.499989 8.33807 0.974094 9.18198 1.81801C10.0259 2.66192 10.5 3.80651 10.5 4.99999Z" stroke="#1773CF" stroke-linecap="round" stroke-linejoin="round"/>
<path d="M6 6.49999C6.82843 6.49999 7.5 5.82842 7.5 4.99999C7.5 4.17156 6.82843 3.49999 6 3.49999C5.17157 3.49999 4.5 4.17156 4.5 4.99999C4.5 5.82842 5.17157 6.49999 6 6.49999Z" stroke="#1773CF" stroke-linecap="round" stroke-linejoin="round"/>
</svg>
