<svg width="26" height="26" viewBox="0 0 26 26" fill="none" xmlns="http://www.w3.org/2000/svg">
<path d="M13.0002 23.8333C14.1918 23.8333 15.1668 22.8583 15.1668 21.6667H10.8335C10.8335 22.2413 11.0618 22.7924 11.4681 23.1987C11.8744 23.6051 12.4255 23.8333 13.0002 23.8333ZM19.5002 17.3333V11.9167C19.5002 8.59084 17.7235 5.80668 14.6252 5.07001V4.33334C14.6252 3.43418 13.8993 2.70834 13.0002 2.70834C12.101 2.70834 11.3752 3.43418 11.3752 4.33334V5.07001C8.26601 5.80668 6.50018 8.58001 6.50018 11.9167V17.3333L5.10268 18.7308C4.42018 19.4133 4.89684 20.5833 5.86101 20.5833H20.1285C21.0927 20.5833 21.5802 19.4133 20.8977 18.7308L19.5002 17.3333Z" fill="#5C6370"/>
<circle cx="19" cy="8" r="4" fill="url(#paint0_linear)"/>
<defs>
<linearGradient id="paint0_linear" x1="24.2529" y1="4.25451" x2="13.6342" y2="9.02134" gradientUnits="userSpaceOnUse">
<stop stop-color="#FC9B42"/>
<stop offset="1" stop-color="#FCE118"/>
</linearGradient>
</defs>
</svg>
